<?xml version="1.0" encoding="utf-8"?>
<!-- Generator: Adobe Illustrator 23.1.1, SVG Export Plug-In . SVG Version: 6.00 Build 0)  -->
<svg version="1.1" id="Lag_1" xmlns="http://www.w3.org/2000/svg" xmlns:xlink="http://www.w3.org/1999/xlink" x="0px" y="0px"
	 viewBox="0 0 1138 768" style="enable-background:new 0 0 1138 768;" xml:space="preserve">
<style type="text/css">
	.st0{fill:none;stroke:#DADADA;stroke-miterlimit:10;}
</style>
<path class="st0" d="M11.91-1.16c0.87,3.02,3.49,5.03,6.11,8.04c10.47,14.07,24.42,27.65,42.74,39.71c0.87,0.5,0.87,1.51,1.74,2.01
	c63.67,45.74,148.27,73.38,248.57,85.45c0.87,0,33.14,4.52,47.97,5.53c10.47,0.5,20.06,1.51,29.65,2.01
	c130.83,5.53,257.29,7.54,389.86,19.1c27.91,2.51,54.07,5.53,80.24,11.56c14.83,3.52,31.4,7.54,35.76,17.59
	c0.87,3.02,0,6.03-2.62,9.05c-2.62,3.02-5.23,6.03-9.59,8.54c-9.59,5.53-18.32,10.56-30.53,14.07c-0.87,0.5-1.74,1.01-2.62,1.51
	c-16.57,5.03-31.4,10.05-48.84,13.57c-13.08,2.51-25.29,5.53-38.38,8.04c-81.98,14.58-163.1,23.12-245.95,37.2
	c-32.27,5.53-66.29,9.55-91.58,23.12c-4.36,2.51-7.85,6.53-7.85,10.05c0.87,7.54,10.47,13.57,21.8,17.59
	c18.32,6.03,36.63,9.05,56.69,11.56c47.1,5.53,91.58,7.04,137.8,7.54c34.01,1.01,67.16,0.5,101.17-0.5
	c54.07-6.53,109.02-10.56,164.84-13.07c26.17-1.01,52.33-1.51,78.5-0.5c18.32,1.01,35.76,2.51,54.07,5.53
	c20.06,3.52,35.76,14.07,36.63,26.14c0,7.04-6.98,13.07-14.83,18.6c-19.19,12.06-47.1,25.13-38.38,43.23
	c2.62,4.52,6.11,8.04,13.08,11.06c25.29,9.55,52.33,12.06,79.37,17.59c8.72,2.01,22.68,4.52,20.93,12.06
	c-1.74,6.03-10.47,9.05-17.44,13.07c-2.4-0.03-21.58-0.14-23.56,5.35c-1.82,5.03,11.43,13.04,23.28,16.1
	c11.61,2.99,22.05,1.26,27.43,0"/>
<path class="st0" d="M38.78-1.16c0,0,63.53,109.75,139.28,123.58S463.95,102.54,613,137.11s48.87,21.6,190.59,36.3
	c141.72,14.69,134.39,35.43,114.84,42.34c-19.55,6.91-51.31,2.59-158.83,17.28c-107.51,14.69-134.39,46.67-200.36,57.9
	c-65.97,11.23-153.94-11.23-158.83,0c-4.89,11.23-11.39,28.52,83.49,33.7s104.65-1.73,192.62,14.69s173.49,19.88,202.81,12.96
	c29.32-6.91,73.3-31.97,124.62-25.93c51.31,6.05,53.76,29.38,34.21,46.67c-19.55,17.28-18.91,46.67,11.31,55.31
	c32.42,9.27,41.53,31.41,37.56,44.07c-2.45,7.8-13.42,9.75-13.05,18.51c0.25,5.71,5.22,11.85,11.64,13.41
	c4.86,1.18,9.41-0.54,11.64-1.34c8.03-2.87,20.62-6.05,40.73-7.38"/>
</svg>
