<?xml version="1.0" encoding="utf-8"?>
<!-- Generator: Adobe Illustrator 23.1.1, SVG Export Plug-In . SVG Version: 6.00 Build 0)  -->
<svg version="1.1" id="Lag_1" xmlns="http://www.w3.org/2000/svg" xmlns:xlink="http://www.w3.org/1999/xlink" x="0px" y="0px"
	 viewBox="0 0 768 895" style="enable-background:new 0 0 768 895;" xml:space="preserve">
<style type="text/css">
	.st0{fill:none;stroke:#DADADA;stroke-miterlimit:10;}
</style>
<path class="st0" d="M0,0.34C0.59,5.57,2.38,9.06,4.16,14.3c7.14,24.43,16.66,47.98,29.15,68.92c0.59,0.87,0.59,2.62,1.19,3.49
	C77.92,166.09,135.62,214.07,204.03,235c0.59,0,22.6,7.85,32.72,9.6c7.14,0.87,13.68,2.62,20.22,3.49
	c89.22,9.6,175.47,13.09,265.89,33.15c19.03,4.36,36.88,9.6,54.72,20.06c10.11,6.11,21.41,13.09,24.39,30.53
	c0.59,5.23,0,10.47-1.78,15.7c-1.78,5.23-3.57,10.47-6.54,14.83c-6.54,9.6-12.49,18.32-20.82,24.43c-0.59,0.87-1.19,1.74-1.78,2.62
	c-11.3,8.72-21.41,17.45-33.31,23.55c-8.92,4.36-17.25,9.6-26.17,13.96c-55.91,25.3-111.23,40.13-167.74,64.55
	c-22.01,9.6-45.21,16.57-62.46,40.13c-2.97,4.36-5.35,11.34-5.35,17.45c0.59,13.09,7.14,23.55,14.87,30.53
	c12.49,10.47,24.98,15.7,38.66,20.06c32.12,9.6,62.46,12.21,93.98,13.09c23.2,1.74,45.8,0.87,69-0.87
	c36.88-11.34,74.35-18.32,112.42-22.68c17.84-1.74,35.69-2.62,53.53-0.87c12.49,1.74,24.39,4.36,36.88,9.6
	c13.68,6.11,24.39,24.43,24.98,45.36c0,12.21-4.76,22.68-10.11,32.28c-13.09,20.94-32.12,43.62-26.17,75.02
	c1.78,7.85,4.16,13.96,8.92,19.19c17.25,16.57,35.69,20.94,54.13,30.53c5.95,3.49,15.47,7.85,14.28,20.94
	c-1.19,10.47-7.14,15.7-11.9,22.68c-1.64-0.05-14.72-0.24-16.07,9.29c-1.24,8.73,7.8,22.64,15.87,27.94
	c7.92,5.19,15.04,2.19,18.71,0"/>
<path class="st0" d="M18.33,0.34c0,0,43.33,190.47,94.99,214.47s194.98-34.5,296.63,25.5s33.33,37.49,129.98,62.99
	c96.65,25.5,91.66,61.49,78.32,73.49c-13.33,12-35,4.5-108.32,30c-73.32,25.5-91.66,80.99-136.65,100.49
	c-44.99,19.5-104.99-19.5-108.32,0c-3.33,19.5-7.77,49.49,56.94,58.49c64.71,9,71.37-3,131.37,25.5
	c59.99,28.5,118.32,34.5,138.32,22.5c20-12,49.99-55.49,84.99-44.99c35,10.5,36.66,50.99,23.33,80.99
	c-13.33,30-12.9,80.99,7.72,95.99c22.11,16.09,28.32,54.52,25.61,76.49c-1.67,13.53-9.16,16.93-8.9,32.12
	c0.17,9.91,3.56,20.57,7.94,23.28c3.32,2.05,6.42-0.94,7.94-2.33c5.47-4.98,14.06-10.5,27.78-12.8"/>
</svg>
