<?xml version="1.0" encoding="utf-8"?>
<!-- Generator: Adobe Illustrator 23.1.1, SVG Export Plug-In . SVG Version: 6.00 Build 0)  -->
<svg version="1.1" id="Lag_1" xmlns="http://www.w3.org/2000/svg" xmlns:xlink="http://www.w3.org/1999/xlink" x="0px" y="0px"
	 viewBox="0 0 750.02 989.9" style="enable-background:new 0 0 750.02 989.9;" xml:space="preserve">
<style type="text/css">
	.st0{fill:none;stroke:#DADADA;stroke-miterlimit:10;}
</style>
<path class="st0" d="M6.94,0.57c11.51,59.5,22.51,117.5,45.53,173.5c1,2,0,3,1,5c3,7,6,14,10.01,21c13.01,29,28.02,57,50.03,82
	c1,1,1,3,2,4c11.01,12,21.01,23,33.02,34c10.01,8,19.01,14,30.02,22c14.01,10,29.02,14,44.03,21c6,2,11.01,3,17.01,4
	c53.03,11,102.06,16,155.09,25c21.01,3,40.02,6,61.04,11c20.01,5,38.02,10,57.03,17c8,4,16.01,6,24.01,11c12.01,8,23.01,15,33.02,26
	c18.01,20,15.01,46,9.01,71c-3,14-7,26-15.01,39c-6,9-11.01,18-19.01,26c-14.01,13-28.02,24-45.03,33c-1,1-2,2-3,3
	c-6,3-10.01,6-16.01,9c-14.01,9-27.02,16-41.02,25c-3,2-5,4-8,6c-6,3-11.01,6-17.01,10c-2,1-4,1-5,2c-4,3-8,5-12.01,8c-1,1-4,1-5,2
	c-4,3-8,5-12.01,8c-1,1-3,1-5,2c-7,5-14.01,8-21.01,12c-31.02,18-61.04,36-80.05,67c-5,17-11.01,35-5,52c11.01,28,30.02,53,61.04,60
	c20.01,5,38.02,9,58.03,13c27.02,4,52.03,5,79.05,1c12.01-1,22.01-7,33.02-11c9.01-3,17.01-5,26.02-7c7-3,14.01-5,21.01-7
	c39.02-12,81.05-20,119.07-2c9.01,4,14.01,12,20.01,20c1,1,0,3,1,4c18.01,33,62.11,53.5,62.11,86.5"/>
<path class="st0" d="M18.5,0.07c0,0,42.71,284.6,93.62,320.46s192.17-51.54,292.37,38.1s32.85,56.02,128.12,94.12
	s90.34,91.88,77.2,109.81c-13.14,17.93-34.49,6.72-106.76,44.82c-72.27,38.1-90.34,121.01-134.69,150.14s-103.48-29.13-106.76,0
	s-7.65,73.95,56.12,87.4c63.78,13.45,70.35-4.48,129.48,38.1s116.62,51.54,136.33,33.61c19.71-17.93,49.28-82.92,83.77-67.23
	c34.49,15.69,82.65,68.18,82.65,115.18"/>
<path class="st0" d="M873.44,1105.57"/>
</svg>
